<svg xmlns="http://www.w3.org/2000/svg" xmlns:xlink="http://www.w3.org/1999/xlink" width="2560" zoomAndPan="magnify" viewBox="0 0 1920 1079.999946" height="1440" preserveAspectRatio="xMidYMid meet" version="1.0"><defs><g/></defs><rect x="-192" width="2304" fill="#ffffff" y="-107.999995" height="1295.999935" fill-opacity="1"/><rect x="-192" width="2304" fill="#ffffff" y="-107.999995" height="1295.999935" fill-opacity="1"/><g fill="#f06292" fill-opacity="1"><g transform="translate(40.792849, 723.37294)"><g><path d="M 377.46875 -583.0625 C 414.71875 -583.0625 443.882812 -577.4375 464.96875 -566.1875 C 486.0625 -554.945312 496.609375 -540.894531 496.609375 -524.03125 C 496.609375 -519.101562 496.257812 -515.585938 495.5625 -513.484375 C 489.226562 -490.984375 475.164062 -479.734375 453.375 -479.734375 C 449.863281 -479.734375 444.59375 -480.4375 437.5625 -481.84375 C 409.445312 -486.769531 386.601562 -489.234375 369.03125 -489.234375 C 318.414062 -489.234375 277.644531 -477.632812 246.71875 -454.4375 C 215.789062 -431.238281 200.328125 -399.957031 200.328125 -360.59375 L 200.328125 -52.71875 C 200.328125 -35.84375 195.929688 -22.835938 187.140625 -13.703125 C 178.359375 -4.566406 165.179688 0 147.609375 0 C 130.742188 0 117.738281 -4.390625 108.59375 -13.171875 C 99.457031 -21.960938 94.890625 -35.144531 94.890625 -52.71875 L 94.890625 -524.03125 C 94.890625 -540.894531 99.457031 -553.894531 108.59375 -563.03125 C 117.738281 -572.175781 130.742188 -576.75 147.609375 -576.75 C 182.753906 -576.75 200.328125 -559.175781 200.328125 -524.03125 L 200.328125 -503.984375 C 221.421875 -528.585938 247.429688 -547.914062 278.359375 -561.96875 C 309.285156 -576.03125 342.320312 -583.0625 377.46875 -583.0625 Z M 377.46875 -583.0625 "/></g></g></g><g fill="#f06292" fill-opacity="1"><g transform="translate(458.32405, 723.37294)"><g><path d="M 356.375 -580.953125 C 410.5 -580.953125 459.523438 -568.125 503.453125 -542.46875 C 547.390625 -516.8125 582.1875 -481.664062 607.84375 -437.03125 C 633.5 -392.394531 646.328125 -342.664062 646.328125 -287.84375 L 646.328125 -52.71875 C 646.328125 -37.25 641.226562 -24.421875 631.03125 -14.234375 C 620.84375 -4.046875 608.019531 1.046875 592.5625 1.046875 C 577.09375 1.046875 564.257812 -4.046875 554.0625 -14.234375 C 543.875 -24.421875 538.78125 -37.25 538.78125 -52.71875 L 538.78125 -91.734375 C 514.175781 -61.503906 484.300781 -37.953125 449.15625 -21.078125 C 414.007812 -4.210938 376.054688 4.21875 335.296875 4.21875 C 284.679688 4.21875 238.8125 -8.429688 197.6875 -33.734375 C 156.570312 -59.046875 124.238281 -94.019531 100.6875 -138.65625 C 77.144531 -183.289062 65.375 -233.019531 65.375 -287.84375 C 65.375 -342.664062 78.023438 -392.394531 103.328125 -437.03125 C 128.628906 -481.664062 163.597656 -516.8125 208.234375 -542.46875 C 252.867188 -568.125 302.25 -580.953125 356.375 -580.953125 Z M 356.375 -90.671875 C 391.519531 -90.671875 423.328125 -99.28125 451.796875 -116.5 C 480.265625 -133.726562 502.582031 -157.28125 518.75 -187.15625 C 534.914062 -217.03125 543 -250.59375 543 -287.84375 C 543 -325.09375 534.914062 -358.832031 518.75 -389.0625 C 502.582031 -419.289062 480.265625 -443.015625 451.796875 -460.234375 C 423.328125 -477.453125 391.519531 -486.0625 356.375 -486.0625 C 321.226562 -486.0625 289.421875 -477.453125 260.953125 -460.234375 C 232.484375 -443.015625 209.988281 -419.289062 193.46875 -389.0625 C 176.957031 -358.832031 168.703125 -325.09375 168.703125 -287.84375 C 168.703125 -250.59375 176.957031 -217.03125 193.46875 -187.15625 C 209.988281 -157.28125 232.484375 -133.726562 260.953125 -116.5 C 289.421875 -99.28125 321.226562 -90.671875 356.375 -90.671875 Z M 356.375 -90.671875 "/></g></g></g><g fill="#f06292" fill-opacity="1"><g transform="translate(1075.131458, 723.37294)"><g><path d="M 384.84375 -580.953125 C 438.96875 -580.953125 488.347656 -568.125 532.984375 -542.46875 C 577.617188 -516.8125 612.585938 -481.664062 637.890625 -437.03125 C 663.203125 -392.394531 675.859375 -342.664062 675.859375 -287.84375 C 675.859375 -233.019531 664.082031 -183.289062 640.53125 -138.65625 C 616.988281 -94.019531 584.65625 -59.046875 543.53125 -33.734375 C 502.40625 -8.429688 456.539062 4.21875 405.9375 4.21875 C 365.164062 4.21875 327.207031 -4.210938 292.0625 -21.078125 C 256.914062 -37.953125 227.039062 -61.503906 202.4375 -91.734375 L 202.4375 192.953125 C 202.4375 209.117188 197.515625 222.117188 187.671875 231.953125 C 177.835938 241.796875 164.835938 246.71875 148.671875 246.71875 C 133.203125 246.71875 120.367188 241.796875 110.171875 231.953125 C 99.984375 222.117188 94.890625 209.117188 94.890625 192.953125 L 94.890625 -287.84375 C 94.890625 -342.664062 107.71875 -392.394531 133.375 -437.03125 C 159.03125 -481.664062 193.820312 -516.8125 237.75 -542.46875 C 281.6875 -568.125 330.71875 -580.953125 384.84375 -580.953125 Z M 384.84375 -90.671875 C 419.988281 -90.671875 451.796875 -99.28125 480.265625 -116.5 C 508.734375 -133.726562 531.226562 -157.28125 547.75 -187.15625 C 564.269531 -217.03125 572.53125 -250.59375 572.53125 -287.84375 C 572.53125 -325.09375 564.269531 -358.832031 547.75 -389.0625 C 531.226562 -419.289062 508.734375 -443.015625 480.265625 -460.234375 C 451.796875 -477.453125 419.988281 -486.0625 384.84375 -486.0625 C 349.695312 -486.0625 317.890625 -477.453125 289.421875 -460.234375 C 260.953125 -443.015625 238.632812 -419.289062 222.46875 -389.0625 C 206.300781 -358.832031 198.21875 -325.09375 198.21875 -287.84375 C 198.21875 -250.59375 206.300781 -217.03125 222.46875 -187.15625 C 238.632812 -157.28125 260.953125 -133.726562 289.421875 -116.5 C 317.890625 -99.28125 349.695312 -90.671875 384.84375 -90.671875 Z M 384.84375 -90.671875 "/></g></g></g><g fill="#f06292" fill-opacity="1"><g transform="translate(1721.461376, 723.37294)"><g><path d="M 125.46875 16.875 C 105.789062 16.875 88.742188 9.671875 74.328125 -4.734375 C 59.921875 -19.148438 52.71875 -36.195312 52.71875 -55.875 C 52.71875 -76.257812 59.921875 -93.65625 74.328125 -108.0625 C 88.742188 -122.476562 105.789062 -129.6875 125.46875 -129.6875 C 145.15625 -129.6875 162.203125 -122.476562 176.609375 -108.0625 C 191.015625 -93.65625 198.21875 -76.257812 198.21875 -55.875 C 198.21875 -36.195312 191.1875 -19.148438 177.125 -4.734375 C 163.070312 9.671875 145.851562 16.875 125.46875 16.875 Z M 125.46875 16.875 "/></g></g></g><path stroke-linecap="butt" transform="matrix(5.271857, 0, 0, 5.271857, -5.804223, -398.682934)" fill="none" stroke-linejoin="miter" d="M 71.582109 93.404169 C 78.645708 93.404169 84.17996 94.478565 88.183382 96.626616 C 92.187545 98.742806 94.189627 101.396194 94.189627 104.586039 C 94.189627 105.530026 94.124422 106.197633 93.994012 106.588121 C 92.789948 110.852362 90.120259 112.984112 85.986427 112.984112 C 85.335121 112.984112 84.34223 112.854444 83.007756 112.593625 C 77.669119 111.649638 73.339673 111.177645 70.019419 111.177645 C 60.41654 111.177645 52.669033 113.391642 46.777637 117.818154 C 40.918103 122.212804 37.988336 128.137543 37.988336 135.591629 L 37.988336 193.989875 C 37.988336 197.213063 37.158458 199.687138 35.49796 201.4121 C 33.838203 203.137061 31.331526 204.000283 27.978669 204.000283 C 24.788083 204.000283 22.33105 203.169663 20.605348 201.509907 C 18.880386 199.849409 18.017905 197.342732 18.017905 193.989875 L 18.017905 104.586039 C 18.017905 101.396194 18.880386 98.93842 20.605348 97.212718 C 22.33105 95.455154 24.788083 94.576372 27.978669 94.576372 C 34.65178 94.576372 37.988336 97.912928 37.988336 104.586039 L 37.988336 108.394588 C 41.992499 103.73986 46.923607 100.07728 52.783141 97.408332 C 58.675278 94.738643 64.9416 93.404169 71.582109 93.404169 Z M 146.777982 93.794656 C 157.06477 93.794656 166.374227 96.236129 174.707836 101.119074 C 183.041445 105.969417 189.63305 112.626227 194.483393 121.089505 C 199.366338 129.553523 201.807811 138.99339 201.807811 149.409845 L 201.807811 193.989875 C 201.807811 196.919642 200.831222 199.361114 198.878044 201.314293 C 196.957468 203.234868 194.532297 204.195156 191.60253 204.195156 C 188.672763 204.195156 186.23129 203.234868 184.278112 201.314293 C 182.357536 199.361114 181.397248 196.919642 181.397248 193.989875 L 181.397248 186.617295 C 176.74252 192.346419 171.0786 196.806275 164.404748 199.99612 C 157.731636 203.185965 150.537628 204.781258 142.822723 204.781258 C 133.220585 204.781258 124.51279 202.388689 116.700078 197.603551 C 108.887366 192.78581 102.751452 186.145301 98.291597 177.681283 C 93.832482 169.218005 91.602184 159.79444 91.602184 149.409845 C 91.602184 138.99339 93.994753 129.553523 98.779891 121.089505 C 103.597632 112.626227 110.238141 105.969417 118.702159 101.119074 C 127.165437 96.236129 136.524539 93.794656 146.777982 93.794656 Z M 146.777982 186.812168 C 153.451094 186.812168 159.489941 185.185013 164.893042 181.929964 C 170.296884 178.64157 174.528523 174.166155 177.588699 168.502235 C 180.648876 162.837574 182.178223 156.474185 182.178223 149.409845 C 182.178223 142.346247 180.648876 135.949514 177.588699 130.22039 C 174.528523 124.458663 170.296884 119.950645 164.893042 116.695595 C 159.489941 113.439804 153.451094 111.81265 146.777982 111.81265 C 140.137473 111.81265 134.115668 113.439804 128.711826 116.695595 C 123.307984 119.950645 119.027442 124.458663 115.870199 130.22039 C 112.744818 135.949514 111.182127 142.346247 111.182127 149.409845 C 111.182127 156.474185 112.744818 162.837574 115.870199 168.502235 C 119.027442 174.166155 123.307984 178.64157 128.711826 181.929964 C 134.115668 185.185013 140.137473 186.812168 146.777982 186.812168 Z M 269.198381 93.794656 C 279.451825 93.794656 288.810927 96.236129 297.274205 101.119074 C 305.770084 105.969417 312.411334 112.626227 317.196472 121.089505 C 322.014213 129.553523 324.423083 138.99339 324.423083 149.409845 C 324.423083 159.79444 322.176484 169.218005 317.684767 177.681283 C 313.224912 186.145301 307.088998 192.78581 299.276286 197.603551 C 291.496176 202.388689 282.804682 204.781258 273.201804 204.781258 C 265.454296 204.781258 258.243987 203.185965 251.570875 199.99612 C 244.930366 196.806275 239.266446 192.346419 234.579115 186.617295 L 234.579115 240.620889 C 234.579115 243.681066 233.65143 246.13884 231.796059 247.994211 C 229.939947 249.849582 227.482914 250.777267 224.422738 250.777267 C 221.460368 250.777267 219.018896 249.849582 217.09832 247.994211 C 215.177744 246.13884 214.217457 243.681066 214.217457 240.620889 L 214.217457 149.409845 C 214.217457 138.99339 216.642628 129.553523 221.492971 121.089505 C 226.375916 112.626227 232.983822 105.969417 241.317432 101.119074 C 249.6503 96.236129 258.944197 93.794656 269.198381 93.794656 Z M 269.198381 186.812168 C 275.871493 186.812168 281.909599 185.185013 287.313441 181.929964 C 292.717283 178.64157 296.981524 174.166155 300.106165 168.502235 C 303.231546 162.837574 304.793495 156.474185 304.793495 149.409845 C 304.793495 142.346247 303.231546 135.949514 300.106165 130.22039 C 296.981524 124.458663 292.717283 119.950645 287.313441 116.695595 C 281.909599 113.439804 275.871493 111.81265 269.198381 111.81265 C 262.52527 111.81265 256.486423 113.439804 251.082581 116.695595 C 245.67948 119.950645 241.4471 124.458663 238.387664 130.22039 C 235.327488 135.949514 233.7974 142.346247 233.7974 149.409845 C 233.7974 156.474185 235.327488 162.837574 238.387664 168.502235 C 241.4471 174.166155 245.67948 178.64157 251.082581 181.929964 C 256.486423 185.185013 262.52527 186.812168 269.198381 186.812168 Z M 342.579637 207.22273 C 338.868154 207.22273 335.645706 205.855654 332.911553 203.12076 C 330.177401 200.386607 328.809583 197.147858 328.809583 193.404514 C 328.809583 189.53076 330.177401 186.226807 332.911553 183.491913 C 335.645706 180.75776 338.868154 179.390684 342.579637 179.390684 C 346.322981 179.390684 349.561729 180.75776 352.295882 183.491913 C 355.030776 186.226807 356.397853 189.53076 356.397853 193.404514 C 356.397853 197.147858 355.063379 200.386607 352.393689 203.12076 C 349.724741 205.855654 346.45339 207.22273 342.579637 207.22273 Z M 342.579637 207.22273 " stroke="#000000" stroke-width="7.5" stroke-opacity="1" stroke-miterlimit="4"/></svg>